HIERARCHY
ROOT Hips
{
	OFFSET 0.00000 0.00000 0.00000
	CHANNELS 6 Xposition Yposition Zposition Zrotation Yrotation Xrotation 
	JOINT LHipJoint
	{
		OFFSET 0 0 0
		CHANNELS 3 Zrotation Yrotation Xrotation
		JOINT LeftHip
		{
			OFFSET 1.27966 -1.91611 0.81506
			CHANNELS 3 Zrotation Yrotation Xrotation
			JOINT LeftKnee
			{
				OFFSET 2.49511 -6.85528 0.00000
				CHANNELS 3 Zrotation Yrotation Xrotation
				JOINT LeftAnkle
				{
					OFFSET 2.67286 -7.34045 0.00000
					CHANNELS 3 Zrotation Yrotation Xrotation
					JOINT LeftToe
					{
						OFFSET 0.22740 -0.62477 2.32102
						CHANNELS 3 Zrotation Yrotation Xrotation
						End Site
						{
							OFFSET 0.00000 -0.00000 1.20480
						}
					}
				}
			}
		}
	}
	JOINT RHipJoint
	{
		OFFSET 0 0 0
		CHANNELS 3 Zrotation Yrotation Xrotation
		JOINT RightHip
		{
			OFFSET -1.09666 -1.91611 0.81505
			CHANNELS 3 Zrotation Yrotation Xrotation
			JOINT RightKnee
			{
				OFFSET -2.51373 -6.90642 0.00000
				CHANNELS 3 Zrotation Yrotation Xrotation
				JOINT RightAnkle
				{
					OFFSET -2.70173 -7.42295 0.00000
					CHANNELS 3 Zrotation Yrotation Xrotation
					JOINT RightToe
					{
						OFFSET -0.22214 -0.61032 2.18267
						CHANNELS 3 Zrotation Yrotation Xrotation
						End Site
						{
							OFFSET -0.00000 -0.00000 1.13683
						}
					}
				}
			}
		}
	}
	JOINT lowerback
	{
		OFFSET 0 0 0
		CHANNELS 3 Zrotation Yrotation Xrotation
		JOINT Chest
		{
			OFFSET -0.00990 2.16804 -0.08389
			CHANNELS 3 Zrotation Yrotation Xrotation
			JOINT Chest2
			{
				OFFSET 0.06407 2.15456 0.07285
				CHANNELS 3 Zrotation Yrotation Xrotation
				JOINT lowerneck
				{
					OFFSET 0 0 0
					CHANNELS 3 Zrotation Yrotation Xrotation
					JOINT Neck
					{
						OFFSET -0.16931 1.61602 0.24462
						CHANNELS 3 Zrotation Yrotation Xrotation
						JOINT Head
						{
							OFFSET 0.21556 1.63376 -0.33896
							CHANNELS 3 Zrotation Yrotation Xrotation
							End Site
							{
								OFFSET 0.08444 1.69244 -0.14900
							}
						}
					}
				}
				JOINT LeftCollar
				{
					OFFSET 0 0 0
					CHANNELS 3 Zrotation Yrotation Xrotation
					JOINT LeftShoulder
					{
						OFFSET 2.89000 1.40150 -0.54392
CHANNELS 3 Zrotation Xrotation Yrotation
						JOINT LeftElbow
						{
OFFSET 0 -5.107550 0.000000
CHANNELS 3 Zrotation Xrotation Yrotation
							JOINT LeftWrist
							{
OFFSET 0 -3.362530 0.000000
CHANNELS 3 Zrotation Xrotation Yrotation
								JOINT lhand
								{
									OFFSET 0 0 0
CHANNELS 3 Zrotation Xrotation Yrotation
									JOINT LFingers
									{
OFFSET 0 -0.619090 0.000000
CHANNELS 3 Zrotation Xrotation Yrotation
										End Site
										{
OFFSET 0 -0.499120 0.000000
										}
									}
								}
								JOINT LThumb
								{
OFFSET 0 0.000000 0.000000
CHANNELS 3 Zrotation Xrotation Yrotation
									End Site
									{
OFFSET 0 -0.506750 0.506750
									}
								}
							}
						}
					}
				}
				JOINT RightCollar
				{
					OFFSET 0 0 0
					CHANNELS 3 Zrotation Yrotation Xrotation
					JOINT RightShoulder
					{
						OFFSET -2.65771 1.70968 -0.54312
CHANNELS 3 Zrotation Xrotation Yrotation
						JOINT RightElbow
						{
OFFSET 0 -5.273870 0.000000
CHANNELS 3 Zrotation Xrotation Yrotation
							JOINT RightWrist
							{
OFFSET 0 -3.401440 0.000000
CHANNELS 3 Zrotation Xrotation Yrotation
								JOINT rhand
								{
									OFFSET 0 0 0
CHANNELS 3 Zrotation Xrotation Yrotation
									JOINT RFingers
									{
OFFSET 0 -0.742820 0.000000
CHANNELS 3 Zrotation Xrotation Yrotation
										End Site
										{
OFFSET 0 -0.598880 0.000000
										}
									}
								}
								JOINT RThumb
								{
OFFSET 0 0.000000 0.000000
CHANNELS 3 Zrotation Xrotation Yrotation
									End Site
									{
OFFSET 0 -0.608030 0.608030
									}
								}
							}
						}
					}
				}
			}
		}
	}
}
MOTION
Frames: 4
Frame Time: 0.008333333333333333
0.875593 18.077064 -12.250893 -4.144008 -1.592575 0.237006 0.000000 0.000000 0.000000 -13.710131 -0.165213 -5.399989 2.035243 8.939186 25.605093 0.853578 -3.592870 -16.616281 0.764634 -5.583977 -15.581977 0.000000 0.000000 0.000000 21.959841 3.860317 -4.491822 -1.903225 -8.661486 24.742057 -0.855836 -1.817283 -18.222625 -0.737504 5.486412 -15.301360 1.552162 -0.241962 5.618799 3.507918 -0.041877 -1.691555 2.776216 -0.011562 -4.910447 -17.106761 -7.548985 -18.519607 9.448182 -8.090069 24.508784 5.098130 -4.094466 12.313674 0.000000 0.000000 0.000000 -1.131283 11.924495 -20.808588 18.364810 -28.621770 4.722717 13.754538 6.377123 -34.196982 0.000000 0.000000 0.000000 -7.125000 0.000000 0.000000 -23.635305 63.433246 10.871860 0.000000 0.000000 0.000000 -4.751436 4.034122 16.138065 -13.951818 -22.665806 -2.809570 -21.216799 1.179476 -9.953671 0.000000 0.000000 0.000000 7.125000 0.000000 0.000000 4.109870 19.332955 2.523769
0.822229 18.074450 -12.236372 -4.028273 -0.630775 0.082974 0.000000 0.000000 0.000000 -13.590323 -0.463173 -5.345733 2.044344 8.957903 25.663765 0.830460 -4.128088 -16.323426 0.745987 -5.517027 -15.389358 0.000000 0.000000 0.000000 22.064215 3.388302 -4.421168 -1.923021 -8.703928 24.873422 -0.887764 -1.973938 -18.615410 -0.677199 5.261466 -14.655879 1.773627 -0.038296 5.602497 3.595762 0.249548 -1.654726 2.714158 0.127822 -4.873435 -18.199959 -8.266288 -17.189128 10.333392 -9.286112 24.200194 5.423629 -4.655235 12.236020 0.000000 0.000000 0.000000 -1.039871 11.783269 -20.535266 18.250837 -28.477192 4.668251 11.254885 4.913975 -33.048059 0.000000 0.000000 0.000000 -7.125000 0.000000 0.000000 -25.192823 61.764812 10.647064 0.000000 0.000000 0.000000 -5.402023 3.956328 15.660163 -14.134223 -22.926313 -2.880176 -21.284956 1.451841 -9.141627 0.000000 0.000000 0.000000 7.125000 0.000000 0.000000 4.045253 20.193435 2.406335
0.653598 18.090096 -12.250960 -3.719182 -1.954279 0.880194 0.000000 0.000000 0.000000 -13.483041 -0.589321 -5.806983 1.976276 8.816530 25.223136 0.827290 -2.811164 -16.466155 0.798788 -5.704683 -15.929763 0.000000 0.000000 0.000000 22.141434 4.005925 -5.559242 -1.968067 -8.799266 25.169352 -0.872641 -1.210874 -18.125599 -0.680761 5.275276 -14.695297 1.669285 0.021406 5.506191 3.429366 0.287921 -1.120314 2.588931 0.145479 -4.261729 -18.990936 -8.385956 -16.104994 12.422937 -9.761699 20.960098 6.208893 -4.679744 11.034714 0.000000 0.000000 0.000000 -1.507614 11.893740 -19.688081 18.240119 -28.463569 4.663156 11.585799 5.461678 -32.246419 0.000000 0.000000 0.000000 -7.125000 0.000000 0.000000 -24.108451 61.128182 9.793005 0.000000 0.000000 0.000000 -5.029190 3.553514 16.702456 -14.806442 -23.875784 -3.147184 -21.964153 -0.549310 -10.040978 0.000000 0.000000 0.000000 7.125000 0.000000 0.000000 3.580377 19.182207 2.209533
0.547350 18.063125 -12.173076 -3.621931 0.891987 0.534582 0.000000 0.000000 0.000000 -13.091797 -1.434497 -5.684212 2.026825 8.921701 25.550678 0.818774 -4.306157 -16.188987 0.895172 -6.030240 -16.872296 0.000000 0.000000 0.000000 22.598726 2.883120 -5.215750 -2.024052 -8.915879 25.532686 -0.966724 -2.353563 -19.562947 -0.598582 4.952678 -13.773656 1.604969 -0.336983 5.497336 3.758357 -0.186187 -0.986891 3.009386 -0.084306 -4.101782 -18.740307 -8.031480 -14.342376 12.902896 -9.703159 20.011257 6.368818 -4.632053 10.350769 0.000000 0.000000 0.000000 -2.249119 9.890692 -21.723949 18.235567 -28.457753 4.660995 13.209277 2.157985 -28.677865 0.000000 0.000000 0.000000 -7.125000 0.000000 0.000000 -19.609294 58.216694 6.502899 0.000000 0.000000 0.000000 -5.975231 4.375049 10.985752 -13.187977 -21.562042 -2.521942 -22.001697 2.242815 -10.838296 0.000000 0.000000 0.000000 7.125000 0.000000 0.000000 3.577558 18.325904 2.275845
